G04 PROTEUS GERBER X2 FILE*
%TF.GenerationSoftware,Labcenter,Proteus,8.6-SP2-Build23525*%
%TF.CreationDate,2026-03-31T20:24:10+00:00*%
%TF.FileFunction,Legend,Top*%
%TF.FilePolarity,Positive*%
%TF.Part,Single*%
%FSLAX45Y45*%
%MOMM*%
G01*
%TA.AperFunction,Profile*%
%ADD18C,0.203200*%
%TA.AperFunction,Material*%
%ADD70C,0.203200*%
%ADD71C,0.250000*%
%ADD20C,0.200000*%
%TD.AperFunction*%
D18*
X-15000000Y+6850000D02*
X+0Y+6850000D01*
X+0Y+10300000D01*
X-15000000Y+10300000D01*
X-15000000Y+6850000D01*
D70*
X-9398000Y+8001000D02*
X-9398000Y+8128000D01*
X-9271000Y+8255000D02*
X-9273436Y+8280876D01*
X-9280485Y+8304848D01*
X-9291762Y+8326438D01*
X-9306878Y+8345170D01*
X-9325446Y+8360569D01*
X-9347081Y+8372158D01*
X-9371394Y+8379460D01*
X-9398000Y+8382000D01*
X-9271000Y+8255000D02*
X-9273436Y+8228394D01*
X-9280485Y+8204081D01*
X-9291762Y+8182446D01*
X-9306878Y+8163878D01*
X-9325446Y+8148762D01*
X-9347081Y+8137485D01*
X-9371394Y+8130436D01*
X-9398000Y+8128000D01*
X-9398000Y+8382000D02*
X-9398000Y+8509000D01*
X-7366000Y+8001000D02*
X-7366000Y+8509000D01*
X-9398000Y+8001000D02*
X-7366000Y+8001000D01*
X-7366000Y+8509000D02*
X-9398000Y+8509000D01*
X-9530080Y+8128000D02*
X-9453880Y+8128000D01*
X-9438640Y+8143875D01*
X-9438640Y+8207375D01*
X-9453880Y+8223250D01*
X-9530080Y+8223250D01*
X-9514840Y+8270875D02*
X-9530080Y+8286750D01*
X-9530080Y+8334375D01*
X-9514840Y+8350250D01*
X-9499600Y+8350250D01*
X-9484360Y+8334375D01*
X-9484360Y+8286750D01*
X-9469120Y+8270875D01*
X-9438640Y+8270875D01*
X-9438640Y+8350250D01*
X-9398000Y+9398000D02*
X-9398000Y+9525000D01*
X-8382000Y+9525000D01*
X-8382000Y+9017000D01*
X-9398000Y+9017000D01*
X-9398000Y+9144000D01*
X-9271000Y+9271000D02*
X-9273436Y+9296876D01*
X-9280485Y+9320848D01*
X-9291762Y+9342438D01*
X-9306878Y+9361170D01*
X-9325446Y+9376569D01*
X-9347081Y+9388158D01*
X-9371394Y+9395460D01*
X-9398000Y+9398000D01*
X-9271000Y+9271000D02*
X-9273436Y+9244394D01*
X-9280485Y+9220081D01*
X-9291762Y+9198446D01*
X-9306878Y+9179878D01*
X-9325446Y+9164762D01*
X-9347081Y+9153485D01*
X-9371394Y+9146436D01*
X-9398000Y+9144000D01*
X-9530080Y+9144000D02*
X-9453880Y+9144000D01*
X-9438640Y+9159875D01*
X-9438640Y+9223375D01*
X-9453880Y+9239250D01*
X-9530080Y+9239250D01*
X-9499600Y+9302750D02*
X-9530080Y+9334500D01*
X-9438640Y+9334500D01*
D71*
X-13269500Y+9406000D02*
X-13269543Y+9407039D01*
X-13269895Y+9409118D01*
X-13270632Y+9411197D01*
X-13271836Y+9413276D01*
X-13273677Y+9415326D01*
X-13275756Y+9416829D01*
X-13277835Y+9417786D01*
X-13279914Y+9418325D01*
X-13281993Y+9418500D01*
X-13282000Y+9418500D01*
X-13294500Y+9406000D02*
X-13294457Y+9407039D01*
X-13294105Y+9409118D01*
X-13293368Y+9411197D01*
X-13292164Y+9413276D01*
X-13290323Y+9415326D01*
X-13288244Y+9416829D01*
X-13286165Y+9417786D01*
X-13284086Y+9418325D01*
X-13282007Y+9418500D01*
X-13282000Y+9418500D01*
X-13294500Y+9406000D02*
X-13294457Y+9404961D01*
X-13294105Y+9402882D01*
X-13293368Y+9400803D01*
X-13292164Y+9398724D01*
X-13290323Y+9396674D01*
X-13288244Y+9395171D01*
X-13286165Y+9394214D01*
X-13284086Y+9393675D01*
X-13282007Y+9393500D01*
X-13282000Y+9393500D01*
X-13269500Y+9406000D02*
X-13269543Y+9404961D01*
X-13269895Y+9402882D01*
X-13270632Y+9400803D01*
X-13271836Y+9398724D01*
X-13273677Y+9396674D01*
X-13275756Y+9395171D01*
X-13277835Y+9394214D01*
X-13279914Y+9393675D01*
X-13281993Y+9393500D01*
X-13282000Y+9393500D01*
D20*
X-13299500Y+9341000D02*
X-13232000Y+9341000D01*
X-13232000Y+8581000D01*
X-13299500Y+8581000D01*
X-13624500Y+9341000D02*
X-13692000Y+9341000D01*
X-13692000Y+8581000D01*
X-13624500Y+8581000D01*
D70*
X-13115320Y+8935500D02*
X-13100080Y+8919625D01*
X-13100080Y+8872000D01*
X-13130560Y+8840250D01*
X-13161040Y+8840250D01*
X-13191520Y+8872000D01*
X-13191520Y+8919625D01*
X-13176280Y+8935500D01*
X-13161040Y+8999000D02*
X-13191520Y+9030750D01*
X-13100080Y+9030750D01*
X-14351000Y+9398000D02*
X-14345920Y+9423876D01*
X-14331315Y+9447848D01*
X-14308138Y+9469438D01*
X-14277340Y+9488170D01*
X-14239875Y+9503569D01*
X-14196695Y+9515158D01*
X-14148752Y+9522460D01*
X-14097000Y+9525000D01*
X-13843000Y+9398000D02*
X-13848080Y+9423876D01*
X-13862685Y+9447848D01*
X-13885862Y+9469438D01*
X-13916660Y+9488170D01*
X-13954125Y+9503569D01*
X-13997305Y+9515158D01*
X-14045248Y+9522460D01*
X-14097000Y+9525000D01*
X-14351000Y+9398000D02*
X-14345920Y+9372124D01*
X-14331315Y+9348152D01*
X-14308138Y+9326562D01*
X-14277340Y+9307830D01*
X-14239875Y+9292431D01*
X-14196695Y+9280842D01*
X-14148752Y+9273540D01*
X-14097000Y+9271000D01*
X-13843000Y+9398000D02*
X-13848080Y+9372124D01*
X-13862685Y+9348152D01*
X-13885862Y+9326562D01*
X-13916660Y+9307830D01*
X-13954125Y+9292431D01*
X-13997305Y+9280842D01*
X-14045248Y+9273540D01*
X-14097000Y+9271000D01*
X-14128750Y+9580880D02*
X-14144625Y+9565640D01*
X-14192250Y+9565640D01*
X-14224000Y+9596120D01*
X-14224000Y+9626600D01*
X-14192250Y+9657080D01*
X-14144625Y+9657080D01*
X-14128750Y+9641840D01*
X-14081125Y+9641840D02*
X-14065250Y+9657080D01*
X-14017625Y+9657080D01*
X-14001750Y+9641840D01*
X-14001750Y+9626600D01*
X-14017625Y+9611360D01*
X-14065250Y+9611360D01*
X-14081125Y+9596120D01*
X-14081125Y+9565640D01*
X-14001750Y+9565640D01*
D20*
X-14154000Y+8975000D02*
X-14154000Y+9005000D01*
X-14294000Y+8975000D02*
X-14294000Y+9005000D01*
D70*
X-14334480Y+8863000D02*
X-14425920Y+8863000D01*
X-14425920Y+8942375D01*
X-14410680Y+8958250D01*
X-14395440Y+8958250D01*
X-14380200Y+8942375D01*
X-14380200Y+8863000D01*
X-14380200Y+8942375D02*
X-14364960Y+8958250D01*
X-14334480Y+8958250D01*
X-14395440Y+9021750D02*
X-14425920Y+9053500D01*
X-14334480Y+9053500D01*
X-2540000Y+9525000D02*
X-2540827Y+9545483D01*
X-2547545Y+9586450D01*
X-2561563Y+9627417D01*
X-2584341Y+9668384D01*
X-2619141Y+9709229D01*
X-2660108Y+9740845D01*
X-2701075Y+9761392D01*
X-2742042Y+9773629D01*
X-2783009Y+9778762D01*
X-2794000Y+9779000D01*
X-3048000Y+9525000D02*
X-3047173Y+9545483D01*
X-3040455Y+9586450D01*
X-3026437Y+9627417D01*
X-3003659Y+9668384D01*
X-2968859Y+9709229D01*
X-2927892Y+9740845D01*
X-2886925Y+9761392D01*
X-2845958Y+9773629D01*
X-2804991Y+9778762D01*
X-2794000Y+9779000D01*
X-3048000Y+9525000D02*
X-3047173Y+9504517D01*
X-3040455Y+9463550D01*
X-3026437Y+9422583D01*
X-3003659Y+9381616D01*
X-2968859Y+9340771D01*
X-2927892Y+9309155D01*
X-2886925Y+9288608D01*
X-2845958Y+9276371D01*
X-2804991Y+9271238D01*
X-2794000Y+9271000D01*
X-2540000Y+9525000D02*
X-2540827Y+9504517D01*
X-2547545Y+9463550D01*
X-2561563Y+9422583D01*
X-2584341Y+9381616D01*
X-2619141Y+9340771D01*
X-2660108Y+9309155D01*
X-2701075Y+9288608D01*
X-2742042Y+9276371D01*
X-2783009Y+9271238D01*
X-2794000Y+9271000D01*
X-2540000Y+9842500D02*
X-2540000Y+9715500D01*
X-2476500Y+9779000D02*
X-2603500Y+9779000D01*
X-2435860Y+9429750D02*
X-2344420Y+9429750D01*
X-2344420Y+9525000D01*
X-2405380Y+9588500D02*
X-2435860Y+9620250D01*
X-2344420Y+9620250D01*
X-1905000Y+9525000D02*
X-1905827Y+9545483D01*
X-1912545Y+9586450D01*
X-1926563Y+9627417D01*
X-1949341Y+9668384D01*
X-1984141Y+9709229D01*
X-2025108Y+9740845D01*
X-2066075Y+9761392D01*
X-2107042Y+9773629D01*
X-2148009Y+9778762D01*
X-2159000Y+9779000D01*
X-2413000Y+9525000D02*
X-2412173Y+9545483D01*
X-2405455Y+9586450D01*
X-2391437Y+9627417D01*
X-2368659Y+9668384D01*
X-2333859Y+9709229D01*
X-2292892Y+9740845D01*
X-2251925Y+9761392D01*
X-2210958Y+9773629D01*
X-2169991Y+9778762D01*
X-2159000Y+9779000D01*
X-2413000Y+9525000D02*
X-2412173Y+9504517D01*
X-2405455Y+9463550D01*
X-2391437Y+9422583D01*
X-2368659Y+9381616D01*
X-2333859Y+9340771D01*
X-2292892Y+9309155D01*
X-2251925Y+9288608D01*
X-2210958Y+9276371D01*
X-2169991Y+9271238D01*
X-2159000Y+9271000D01*
X-1905000Y+9525000D02*
X-1905827Y+9504517D01*
X-1912545Y+9463550D01*
X-1926563Y+9422583D01*
X-1949341Y+9381616D01*
X-1984141Y+9340771D01*
X-2025108Y+9309155D01*
X-2066075Y+9288608D01*
X-2107042Y+9276371D01*
X-2148009Y+9271238D01*
X-2159000Y+9271000D01*
X-1905000Y+9842500D02*
X-1905000Y+9715500D01*
X-1841500Y+9779000D02*
X-1968500Y+9779000D01*
X-1800860Y+9429750D02*
X-1709420Y+9429750D01*
X-1709420Y+9525000D01*
X-1785620Y+9572625D02*
X-1800860Y+9588500D01*
X-1800860Y+9636125D01*
X-1785620Y+9652000D01*
X-1770380Y+9652000D01*
X-1755140Y+9636125D01*
X-1755140Y+9588500D01*
X-1739900Y+9572625D01*
X-1709420Y+9572625D01*
X-1709420Y+9652000D01*
X-1270000Y+9525000D02*
X-1270827Y+9545483D01*
X-1277545Y+9586450D01*
X-1291563Y+9627417D01*
X-1314341Y+9668384D01*
X-1349141Y+9709229D01*
X-1390108Y+9740845D01*
X-1431075Y+9761392D01*
X-1472042Y+9773629D01*
X-1513009Y+9778762D01*
X-1524000Y+9779000D01*
X-1778000Y+9525000D02*
X-1777173Y+9545483D01*
X-1770455Y+9586450D01*
X-1756437Y+9627417D01*
X-1733659Y+9668384D01*
X-1698859Y+9709229D01*
X-1657892Y+9740845D01*
X-1616925Y+9761392D01*
X-1575958Y+9773629D01*
X-1534991Y+9778762D01*
X-1524000Y+9779000D01*
X-1778000Y+9525000D02*
X-1777173Y+9504517D01*
X-1770455Y+9463550D01*
X-1756437Y+9422583D01*
X-1733659Y+9381616D01*
X-1698859Y+9340771D01*
X-1657892Y+9309155D01*
X-1616925Y+9288608D01*
X-1575958Y+9276371D01*
X-1534991Y+9271238D01*
X-1524000Y+9271000D01*
X-1270000Y+9525000D02*
X-1270827Y+9504517D01*
X-1277545Y+9463550D01*
X-1291563Y+9422583D01*
X-1314341Y+9381616D01*
X-1349141Y+9340771D01*
X-1390108Y+9309155D01*
X-1431075Y+9288608D01*
X-1472042Y+9276371D01*
X-1513009Y+9271238D01*
X-1524000Y+9271000D01*
X-1270000Y+9842500D02*
X-1270000Y+9715500D01*
X-1206500Y+9779000D02*
X-1333500Y+9779000D01*
X-1165860Y+9429750D02*
X-1074420Y+9429750D01*
X-1074420Y+9525000D01*
X-1150620Y+9572625D02*
X-1165860Y+9588500D01*
X-1165860Y+9636125D01*
X-1150620Y+9652000D01*
X-1135380Y+9652000D01*
X-1120140Y+9636125D01*
X-1104900Y+9652000D01*
X-1089660Y+9652000D01*
X-1074420Y+9636125D01*
X-1074420Y+9588500D01*
X-1089660Y+9572625D01*
X-1120140Y+9604375D02*
X-1120140Y+9636125D01*
X-635000Y+9525000D02*
X-635827Y+9545483D01*
X-642545Y+9586450D01*
X-656563Y+9627417D01*
X-679341Y+9668384D01*
X-714141Y+9709229D01*
X-755108Y+9740845D01*
X-796075Y+9761392D01*
X-837042Y+9773629D01*
X-878009Y+9778762D01*
X-889000Y+9779000D01*
X-1143000Y+9525000D02*
X-1142173Y+9545483D01*
X-1135455Y+9586450D01*
X-1121437Y+9627417D01*
X-1098659Y+9668384D01*
X-1063859Y+9709229D01*
X-1022892Y+9740845D01*
X-981925Y+9761392D01*
X-940958Y+9773629D01*
X-899991Y+9778762D01*
X-889000Y+9779000D01*
X-1143000Y+9525000D02*
X-1142173Y+9504517D01*
X-1135455Y+9463550D01*
X-1121437Y+9422583D01*
X-1098659Y+9381616D01*
X-1063859Y+9340771D01*
X-1022892Y+9309155D01*
X-981925Y+9288608D01*
X-940958Y+9276371D01*
X-899991Y+9271238D01*
X-889000Y+9271000D01*
X-635000Y+9525000D02*
X-635827Y+9504517D01*
X-642545Y+9463550D01*
X-656563Y+9422583D01*
X-679341Y+9381616D01*
X-714141Y+9340771D01*
X-755108Y+9309155D01*
X-796075Y+9288608D01*
X-837042Y+9276371D01*
X-878009Y+9271238D01*
X-889000Y+9271000D01*
X-635000Y+9842500D02*
X-635000Y+9715500D01*
X-571500Y+9779000D02*
X-698500Y+9779000D01*
X-530860Y+9429750D02*
X-439420Y+9429750D01*
X-439420Y+9525000D01*
X-469900Y+9652000D02*
X-469900Y+9556750D01*
X-530860Y+9620250D01*
X-439420Y+9620250D01*
X-1905000Y+8890000D02*
X-1905827Y+8910483D01*
X-1912545Y+8951450D01*
X-1926563Y+8992417D01*
X-1949341Y+9033384D01*
X-1984141Y+9074229D01*
X-2025108Y+9105845D01*
X-2066075Y+9126392D01*
X-2107042Y+9138629D01*
X-2148009Y+9143762D01*
X-2159000Y+9144000D01*
X-2413000Y+8890000D02*
X-2412173Y+8910483D01*
X-2405455Y+8951450D01*
X-2391437Y+8992417D01*
X-2368659Y+9033384D01*
X-2333859Y+9074229D01*
X-2292892Y+9105845D01*
X-2251925Y+9126392D01*
X-2210958Y+9138629D01*
X-2169991Y+9143762D01*
X-2159000Y+9144000D01*
X-2413000Y+8890000D02*
X-2412173Y+8869517D01*
X-2405455Y+8828550D01*
X-2391437Y+8787583D01*
X-2368659Y+8746616D01*
X-2333859Y+8705771D01*
X-2292892Y+8674155D01*
X-2251925Y+8653608D01*
X-2210958Y+8641371D01*
X-2169991Y+8636238D01*
X-2159000Y+8636000D01*
X-1905000Y+8890000D02*
X-1905827Y+8869517D01*
X-1912545Y+8828550D01*
X-1926563Y+8787583D01*
X-1949341Y+8746616D01*
X-1984141Y+8705771D01*
X-2025108Y+8674155D01*
X-2066075Y+8653608D01*
X-2107042Y+8641371D01*
X-2148009Y+8636238D01*
X-2159000Y+8636000D01*
X-1841500Y+8636000D02*
X-1968500Y+8636000D01*
X-1905000Y+8572500D02*
X-1905000Y+8699500D01*
X-2254250Y+8531860D02*
X-2254250Y+8440420D01*
X-2159000Y+8440420D01*
X-2032000Y+8531860D02*
X-2111375Y+8531860D01*
X-2111375Y+8501380D01*
X-2047875Y+8501380D01*
X-2032000Y+8486140D01*
X-2032000Y+8455660D01*
X-2047875Y+8440420D01*
X-2095500Y+8440420D01*
X-2111375Y+8455660D01*
X-1905000Y+8255000D02*
X-1905827Y+8275483D01*
X-1912545Y+8316450D01*
X-1926563Y+8357417D01*
X-1949341Y+8398384D01*
X-1984141Y+8439229D01*
X-2025108Y+8470845D01*
X-2066075Y+8491392D01*
X-2107042Y+8503629D01*
X-2148009Y+8508762D01*
X-2159000Y+8509000D01*
X-2413000Y+8255000D02*
X-2412173Y+8275483D01*
X-2405455Y+8316450D01*
X-2391437Y+8357417D01*
X-2368659Y+8398384D01*
X-2333859Y+8439229D01*
X-2292892Y+8470845D01*
X-2251925Y+8491392D01*
X-2210958Y+8503629D01*
X-2169991Y+8508762D01*
X-2159000Y+8509000D01*
X-2413000Y+8255000D02*
X-2412173Y+8234517D01*
X-2405455Y+8193550D01*
X-2391437Y+8152583D01*
X-2368659Y+8111616D01*
X-2333859Y+8070771D01*
X-2292892Y+8039155D01*
X-2251925Y+8018608D01*
X-2210958Y+8006371D01*
X-2169991Y+8001238D01*
X-2159000Y+8001000D01*
X-1905000Y+8255000D02*
X-1905827Y+8234517D01*
X-1912545Y+8193550D01*
X-1926563Y+8152583D01*
X-1949341Y+8111616D01*
X-1984141Y+8070771D01*
X-2025108Y+8039155D01*
X-2066075Y+8018608D01*
X-2107042Y+8006371D01*
X-2148009Y+8001238D01*
X-2159000Y+8001000D01*
X-1841500Y+8001000D02*
X-1968500Y+8001000D01*
X-1905000Y+7937500D02*
X-1905000Y+8064500D01*
X-2254250Y+7896860D02*
X-2254250Y+7805420D01*
X-2159000Y+7805420D01*
X-2032000Y+7881620D02*
X-2047875Y+7896860D01*
X-2095500Y+7896860D01*
X-2111375Y+7881620D01*
X-2111375Y+7820660D01*
X-2095500Y+7805420D01*
X-2047875Y+7805420D01*
X-2032000Y+7820660D01*
X-2032000Y+7835900D01*
X-2047875Y+7851140D01*
X-2111375Y+7851140D01*
X-1270000Y+8255000D02*
X-1270827Y+8275483D01*
X-1277545Y+8316450D01*
X-1291563Y+8357417D01*
X-1314341Y+8398384D01*
X-1349141Y+8439229D01*
X-1390108Y+8470845D01*
X-1431075Y+8491392D01*
X-1472042Y+8503629D01*
X-1513009Y+8508762D01*
X-1524000Y+8509000D01*
X-1778000Y+8255000D02*
X-1777173Y+8275483D01*
X-1770455Y+8316450D01*
X-1756437Y+8357417D01*
X-1733659Y+8398384D01*
X-1698859Y+8439229D01*
X-1657892Y+8470845D01*
X-1616925Y+8491392D01*
X-1575958Y+8503629D01*
X-1534991Y+8508762D01*
X-1524000Y+8509000D01*
X-1778000Y+8255000D02*
X-1777173Y+8234517D01*
X-1770455Y+8193550D01*
X-1756437Y+8152583D01*
X-1733659Y+8111616D01*
X-1698859Y+8070771D01*
X-1657892Y+8039155D01*
X-1616925Y+8018608D01*
X-1575958Y+8006371D01*
X-1534991Y+8001238D01*
X-1524000Y+8001000D01*
X-1270000Y+8255000D02*
X-1270827Y+8234517D01*
X-1277545Y+8193550D01*
X-1291563Y+8152583D01*
X-1314341Y+8111616D01*
X-1349141Y+8070771D01*
X-1390108Y+8039155D01*
X-1431075Y+8018608D01*
X-1472042Y+8006371D01*
X-1513009Y+8001238D01*
X-1524000Y+8001000D01*
X-1206500Y+8001000D02*
X-1333500Y+8001000D01*
X-1270000Y+7937500D02*
X-1270000Y+8064500D01*
X-1619250Y+7896860D02*
X-1619250Y+7805420D01*
X-1524000Y+7805420D01*
X-1476375Y+7896860D02*
X-1397000Y+7896860D01*
X-1397000Y+7881620D01*
X-1476375Y+7805420D01*
X-2159000Y+7620000D02*
X-2159827Y+7640483D01*
X-2166545Y+7681450D01*
X-2180563Y+7722417D01*
X-2203341Y+7763384D01*
X-2238141Y+7804229D01*
X-2279108Y+7835845D01*
X-2320075Y+7856392D01*
X-2361042Y+7868629D01*
X-2402009Y+7873762D01*
X-2413000Y+7874000D01*
X-2667000Y+7620000D02*
X-2666173Y+7640483D01*
X-2659455Y+7681450D01*
X-2645437Y+7722417D01*
X-2622659Y+7763384D01*
X-2587859Y+7804229D01*
X-2546892Y+7835845D01*
X-2505925Y+7856392D01*
X-2464958Y+7868629D01*
X-2423991Y+7873762D01*
X-2413000Y+7874000D01*
X-2667000Y+7620000D02*
X-2666173Y+7599517D01*
X-2659455Y+7558550D01*
X-2645437Y+7517583D01*
X-2622659Y+7476616D01*
X-2587859Y+7435771D01*
X-2546892Y+7404155D01*
X-2505925Y+7383608D01*
X-2464958Y+7371371D01*
X-2423991Y+7366238D01*
X-2413000Y+7366000D01*
X-2159000Y+7620000D02*
X-2159827Y+7599517D01*
X-2166545Y+7558550D01*
X-2180563Y+7517583D01*
X-2203341Y+7476616D01*
X-2238141Y+7435771D01*
X-2279108Y+7404155D01*
X-2320075Y+7383608D01*
X-2361042Y+7371371D01*
X-2402009Y+7366238D01*
X-2413000Y+7366000D01*
X-2667000Y+7302500D02*
X-2667000Y+7429500D01*
X-2730500Y+7366000D02*
X-2603500Y+7366000D01*
X-2862580Y+7461250D02*
X-2771140Y+7461250D01*
X-2771140Y+7556500D01*
X-2816860Y+7620000D02*
X-2832100Y+7604125D01*
X-2847340Y+7604125D01*
X-2862580Y+7620000D01*
X-2862580Y+7667625D01*
X-2847340Y+7683500D01*
X-2832100Y+7683500D01*
X-2816860Y+7667625D01*
X-2816860Y+7620000D01*
X-2801620Y+7604125D01*
X-2786380Y+7604125D01*
X-2771140Y+7620000D01*
X-2771140Y+7667625D01*
X-2786380Y+7683500D01*
X-2801620Y+7683500D01*
X-2816860Y+7667625D01*
X-1270000Y+7620000D02*
X-1270827Y+7640483D01*
X-1277545Y+7681450D01*
X-1291563Y+7722417D01*
X-1314341Y+7763384D01*
X-1349141Y+7804229D01*
X-1390108Y+7835845D01*
X-1431075Y+7856392D01*
X-1472042Y+7868629D01*
X-1513009Y+7873762D01*
X-1524000Y+7874000D01*
X-1778000Y+7620000D02*
X-1777173Y+7640483D01*
X-1770455Y+7681450D01*
X-1756437Y+7722417D01*
X-1733659Y+7763384D01*
X-1698859Y+7804229D01*
X-1657892Y+7835845D01*
X-1616925Y+7856392D01*
X-1575958Y+7868629D01*
X-1534991Y+7873762D01*
X-1524000Y+7874000D01*
X-1778000Y+7620000D02*
X-1777173Y+7599517D01*
X-1770455Y+7558550D01*
X-1756437Y+7517583D01*
X-1733659Y+7476616D01*
X-1698859Y+7435771D01*
X-1657892Y+7404155D01*
X-1616925Y+7383608D01*
X-1575958Y+7371371D01*
X-1534991Y+7366238D01*
X-1524000Y+7366000D01*
X-1270000Y+7620000D02*
X-1270827Y+7599517D01*
X-1277545Y+7558550D01*
X-1291563Y+7517583D01*
X-1314341Y+7476616D01*
X-1349141Y+7435771D01*
X-1390108Y+7404155D01*
X-1431075Y+7383608D01*
X-1472042Y+7371371D01*
X-1513009Y+7366238D01*
X-1524000Y+7366000D01*
X-1206500Y+7366000D02*
X-1333500Y+7366000D01*
X-1270000Y+7302500D02*
X-1270000Y+7429500D01*
X-1619250Y+7261860D02*
X-1619250Y+7170420D01*
X-1524000Y+7170420D01*
X-1397000Y+7231380D02*
X-1412875Y+7216140D01*
X-1460500Y+7216140D01*
X-1476375Y+7231380D01*
X-1476375Y+7246620D01*
X-1460500Y+7261860D01*
X-1412875Y+7261860D01*
X-1397000Y+7246620D01*
X-1397000Y+7185660D01*
X-1412875Y+7170420D01*
X-1460500Y+7170420D01*
X-3175000Y+7620000D02*
X-3175827Y+7640483D01*
X-3182545Y+7681450D01*
X-3196563Y+7722417D01*
X-3219341Y+7763384D01*
X-3254141Y+7804229D01*
X-3295108Y+7835845D01*
X-3336075Y+7856392D01*
X-3377042Y+7868629D01*
X-3418009Y+7873762D01*
X-3429000Y+7874000D01*
X-3683000Y+7620000D02*
X-3682173Y+7640483D01*
X-3675455Y+7681450D01*
X-3661437Y+7722417D01*
X-3638659Y+7763384D01*
X-3603859Y+7804229D01*
X-3562892Y+7835845D01*
X-3521925Y+7856392D01*
X-3480958Y+7868629D01*
X-3439991Y+7873762D01*
X-3429000Y+7874000D01*
X-3683000Y+7620000D02*
X-3682173Y+7599517D01*
X-3675455Y+7558550D01*
X-3661437Y+7517583D01*
X-3638659Y+7476616D01*
X-3603859Y+7435771D01*
X-3562892Y+7404155D01*
X-3521925Y+7383608D01*
X-3480958Y+7371371D01*
X-3439991Y+7366238D01*
X-3429000Y+7366000D01*
X-3175000Y+7620000D02*
X-3175827Y+7599517D01*
X-3182545Y+7558550D01*
X-3196563Y+7517583D01*
X-3219341Y+7476616D01*
X-3254141Y+7435771D01*
X-3295108Y+7404155D01*
X-3336075Y+7383608D01*
X-3377042Y+7371371D01*
X-3418009Y+7366238D01*
X-3429000Y+7366000D01*
X-3111500Y+7366000D02*
X-3238500Y+7366000D01*
X-3175000Y+7302500D02*
X-3175000Y+7429500D01*
X-3587750Y+7261860D02*
X-3587750Y+7170420D01*
X-3492500Y+7170420D01*
X-3429000Y+7231380D02*
X-3397250Y+7261860D01*
X-3397250Y+7170420D01*
X-3333750Y+7185660D02*
X-3333750Y+7246620D01*
X-3317875Y+7261860D01*
X-3254375Y+7261860D01*
X-3238500Y+7246620D01*
X-3238500Y+7185660D01*
X-3254375Y+7170420D01*
X-3317875Y+7170420D01*
X-3333750Y+7185660D01*
X-3333750Y+7170420D02*
X-3238500Y+7261860D01*
D20*
X-2610000Y+8551000D02*
X-2610000Y+8521000D01*
X-2470000Y+8551000D02*
X-2470000Y+8521000D01*
D70*
X-2338080Y+8409000D02*
X-2429520Y+8409000D01*
X-2429520Y+8488375D01*
X-2414280Y+8504250D01*
X-2399040Y+8504250D01*
X-2383800Y+8488375D01*
X-2383800Y+8409000D01*
X-2383800Y+8488375D02*
X-2368560Y+8504250D01*
X-2338080Y+8504250D01*
X-2414280Y+8551875D02*
X-2429520Y+8567750D01*
X-2429520Y+8615375D01*
X-2414280Y+8631250D01*
X-2399040Y+8631250D01*
X-2383800Y+8615375D01*
X-2368560Y+8631250D01*
X-2353320Y+8631250D01*
X-2338080Y+8615375D01*
X-2338080Y+8567750D01*
X-2353320Y+8551875D01*
X-2383800Y+8583625D02*
X-2383800Y+8615375D01*
M02*
