G04 PROTEUS GERBER X2 FILE*
%TF.GenerationSoftware,Labcenter,Proteus,8.6-SP2-Build23525*%
%TF.CreationDate,2026-03-31T20:24:10+00:00*%
%TF.FileFunction,AssemblyDrawing,Top*%
%TF.FilePolarity,Positive*%
%TF.Part,Single*%
%FSLAX45Y45*%
%MOMM*%
G01*
%TA.AperFunction,Profile*%
%ADD18C,0.203200*%
%TA.AperFunction,Material*%
%ADD70C,0.203200*%
%ADD73C,0.533400*%
%ADD30C,0.345440*%
%ADD31C,0.050000*%
%ADD32C,0.305000*%
%ADD33C,0.164590*%
%ADD34C,0.118330*%
%ADD35C,0.197270*%
%ADD36C,0.147950*%
%TD.AperFunction*%
D18*
X-15000000Y+6850000D02*
X+0Y+6850000D01*
X+0Y+10300000D01*
X-15000000Y+10300000D01*
X-15000000Y+6850000D01*
D70*
X-9408160Y+7810500D02*
X-7355840Y+7810500D01*
X-7355840Y+8699500D01*
X-9408160Y+8699500D01*
X-9408160Y+7810500D01*
D73*
X-8808720Y+8415020D02*
X-8808720Y+8148320D01*
X-8755380Y+8094980D01*
X-8542020Y+8094980D01*
X-8488680Y+8148320D01*
X-8488680Y+8415020D01*
X-8328660Y+8361680D02*
X-8275320Y+8415020D01*
X-8115300Y+8415020D01*
X-8061960Y+8361680D01*
X-8061960Y+8308340D01*
X-8115300Y+8255000D01*
X-8275320Y+8255000D01*
X-8328660Y+8201660D01*
X-8328660Y+8094980D01*
X-8061960Y+8094980D01*
D70*
X-9408160Y+8826500D02*
X-8371840Y+8826500D01*
X-8371840Y+9715500D01*
X-9408160Y+9715500D01*
X-9408160Y+8826500D01*
D30*
X-9166352Y+9374632D02*
X-9166352Y+9201912D01*
X-9131808Y+9167368D01*
X-8993632Y+9167368D01*
X-8959088Y+9201912D01*
X-8959088Y+9374632D01*
X-8820912Y+9305544D02*
X-8751824Y+9374632D01*
X-8751824Y+9167368D01*
D31*
X-13717000Y+9416000D02*
X-13717000Y+8506000D01*
X-13207000Y+8506000D01*
X-13207000Y+9416000D01*
X-13717000Y+9416000D01*
X-13412000Y+8961000D02*
X-13512000Y+8961000D01*
X-13462000Y+8911000D02*
X-13462000Y+9011000D01*
D32*
X-13401000Y+8900000D02*
X-13370500Y+8869500D01*
X-13370500Y+8778000D01*
X-13431500Y+8717000D01*
X-13492500Y+8717000D01*
X-13553500Y+8778000D01*
X-13553500Y+8869500D01*
X-13523000Y+8900000D01*
X-13492500Y+9022000D02*
X-13553500Y+9083000D01*
X-13370500Y+9083000D01*
D70*
X-14361160Y+9260840D02*
X-13832840Y+9260840D01*
X-13832840Y+9535160D01*
X-14361160Y+9535160D01*
X-14361160Y+9260840D01*
D33*
X-14129919Y+9365081D02*
X-14146378Y+9348622D01*
X-14195755Y+9348622D01*
X-14228673Y+9381540D01*
X-14228673Y+9414459D01*
X-14195755Y+9447377D01*
X-14146378Y+9447377D01*
X-14129919Y+9430918D01*
X-14080541Y+9430918D02*
X-14064082Y+9447377D01*
X-14014705Y+9447377D01*
X-13998246Y+9430918D01*
X-13998246Y+9414459D01*
X-14014705Y+9398000D01*
X-14064082Y+9398000D01*
X-14080541Y+9381540D01*
X-14080541Y+9348622D01*
X-13998246Y+9348622D01*
D31*
X-14124000Y+8815000D02*
X-14124000Y+9165000D01*
X-14324000Y+9165000D01*
X-14324000Y+8815000D01*
X-14124000Y+8815000D01*
X-14274000Y+8990000D02*
X-14174000Y+8990000D01*
X-14224000Y+9040000D02*
X-14224000Y+8940000D01*
D34*
X-14188500Y+8895334D02*
X-14259500Y+8895334D01*
X-14259500Y+8954500D01*
X-14247667Y+8966333D01*
X-14235833Y+8966333D01*
X-14224000Y+8954500D01*
X-14224000Y+8895334D01*
X-14224000Y+8954500D02*
X-14212167Y+8966333D01*
X-14188500Y+8966333D01*
X-14235833Y+9013666D02*
X-14259500Y+9037333D01*
X-14188500Y+9037333D01*
D70*
X-3058160Y+9260840D02*
X-2466340Y+9260840D01*
X-2466340Y+9852660D01*
X-3058160Y+9852660D01*
X-3058160Y+9260840D01*
D35*
X-2821432Y+9398932D02*
X-2703068Y+9398932D01*
X-2703068Y+9517295D01*
X-2781977Y+9596204D02*
X-2821432Y+9635659D01*
X-2703068Y+9635659D01*
D70*
X-2423160Y+9260840D02*
X-1831340Y+9260840D01*
X-1831340Y+9852660D01*
X-2423160Y+9852660D01*
X-2423160Y+9260840D01*
D35*
X-2186432Y+9398932D02*
X-2068068Y+9398932D01*
X-2068068Y+9517295D01*
X-2166705Y+9576477D02*
X-2186432Y+9596204D01*
X-2186432Y+9655386D01*
X-2166705Y+9675113D01*
X-2146977Y+9675113D01*
X-2127250Y+9655386D01*
X-2127250Y+9596204D01*
X-2107523Y+9576477D01*
X-2068068Y+9576477D01*
X-2068068Y+9675113D01*
D70*
X-1788160Y+9260840D02*
X-1196340Y+9260840D01*
X-1196340Y+9852660D01*
X-1788160Y+9852660D01*
X-1788160Y+9260840D01*
D35*
X-1551432Y+9398932D02*
X-1433068Y+9398932D01*
X-1433068Y+9517295D01*
X-1531705Y+9576477D02*
X-1551432Y+9596204D01*
X-1551432Y+9655386D01*
X-1531705Y+9675113D01*
X-1511977Y+9675113D01*
X-1492250Y+9655386D01*
X-1472523Y+9675113D01*
X-1452795Y+9675113D01*
X-1433068Y+9655386D01*
X-1433068Y+9596204D01*
X-1452795Y+9576477D01*
X-1492250Y+9615931D02*
X-1492250Y+9655386D01*
D70*
X-1153160Y+9260840D02*
X-561340Y+9260840D01*
X-561340Y+9852660D01*
X-1153160Y+9852660D01*
X-1153160Y+9260840D01*
D35*
X-916432Y+9398932D02*
X-798068Y+9398932D01*
X-798068Y+9517295D01*
X-837523Y+9675113D02*
X-837523Y+9556750D01*
X-916432Y+9635659D01*
X-798068Y+9635659D01*
D70*
X-2423160Y+8562340D02*
X-1831340Y+8562340D01*
X-1831340Y+9154160D01*
X-2423160Y+9154160D01*
X-2423160Y+8562340D01*
D35*
X-2285068Y+8917432D02*
X-2285068Y+8799068D01*
X-2166705Y+8799068D01*
X-2008887Y+8917432D02*
X-2107523Y+8917432D01*
X-2107523Y+8877977D01*
X-2028614Y+8877977D01*
X-2008887Y+8858250D01*
X-2008887Y+8818795D01*
X-2028614Y+8799068D01*
X-2087796Y+8799068D01*
X-2107523Y+8818795D01*
D70*
X-2423160Y+7927340D02*
X-1831340Y+7927340D01*
X-1831340Y+8519160D01*
X-2423160Y+8519160D01*
X-2423160Y+7927340D01*
D35*
X-2285068Y+8282432D02*
X-2285068Y+8164068D01*
X-2166705Y+8164068D01*
X-2008887Y+8262705D02*
X-2028614Y+8282432D01*
X-2087796Y+8282432D01*
X-2107523Y+8262705D01*
X-2107523Y+8183795D01*
X-2087796Y+8164068D01*
X-2028614Y+8164068D01*
X-2008887Y+8183795D01*
X-2008887Y+8203523D01*
X-2028614Y+8223250D01*
X-2107523Y+8223250D01*
D70*
X-1788160Y+7927340D02*
X-1196340Y+7927340D01*
X-1196340Y+8519160D01*
X-1788160Y+8519160D01*
X-1788160Y+7927340D01*
D35*
X-1650068Y+8282432D02*
X-1650068Y+8164068D01*
X-1531705Y+8164068D01*
X-1472523Y+8282432D02*
X-1373887Y+8282432D01*
X-1373887Y+8262705D01*
X-1472523Y+8164068D01*
D70*
X-2740660Y+7292340D02*
X-2148840Y+7292340D01*
X-2148840Y+7884160D01*
X-2740660Y+7884160D01*
X-2740660Y+7292340D01*
D35*
X-2503932Y+7430432D02*
X-2385568Y+7430432D01*
X-2385568Y+7548795D01*
X-2444750Y+7627704D02*
X-2464477Y+7607977D01*
X-2484205Y+7607977D01*
X-2503932Y+7627704D01*
X-2503932Y+7686886D01*
X-2484205Y+7706613D01*
X-2464477Y+7706613D01*
X-2444750Y+7686886D01*
X-2444750Y+7627704D01*
X-2425023Y+7607977D01*
X-2405295Y+7607977D01*
X-2385568Y+7627704D01*
X-2385568Y+7686886D01*
X-2405295Y+7706613D01*
X-2425023Y+7706613D01*
X-2444750Y+7686886D01*
D70*
X-1788160Y+7292340D02*
X-1196340Y+7292340D01*
X-1196340Y+7884160D01*
X-1788160Y+7884160D01*
X-1788160Y+7292340D01*
D35*
X-1650068Y+7647432D02*
X-1650068Y+7529068D01*
X-1531705Y+7529068D01*
X-1373887Y+7607977D02*
X-1393614Y+7588250D01*
X-1452796Y+7588250D01*
X-1472523Y+7607977D01*
X-1472523Y+7627705D01*
X-1452796Y+7647432D01*
X-1393614Y+7647432D01*
X-1373887Y+7627705D01*
X-1373887Y+7548795D01*
X-1393614Y+7529068D01*
X-1452796Y+7529068D01*
D70*
X-3693160Y+7292340D02*
X-3101340Y+7292340D01*
X-3101340Y+7884160D01*
X-3693160Y+7884160D01*
X-3693160Y+7292340D01*
D36*
X-3574796Y+7632637D02*
X-3574796Y+7543864D01*
X-3486023Y+7543864D01*
X-3426841Y+7603046D02*
X-3397250Y+7632637D01*
X-3397250Y+7543864D01*
X-3338068Y+7558659D02*
X-3338068Y+7617841D01*
X-3323273Y+7632637D01*
X-3264091Y+7632637D01*
X-3249295Y+7617841D01*
X-3249295Y+7558659D01*
X-3264091Y+7543864D01*
X-3323273Y+7543864D01*
X-3338068Y+7558659D01*
X-3338068Y+7543864D02*
X-3249295Y+7632637D01*
D31*
X-2640000Y+8711000D02*
X-2640000Y+8361000D01*
X-2440000Y+8361000D01*
X-2440000Y+8711000D01*
X-2640000Y+8711000D01*
X-2490000Y+8536000D02*
X-2590000Y+8536000D01*
X-2540000Y+8486000D02*
X-2540000Y+8586000D01*
D34*
X-2504500Y+8441334D02*
X-2575500Y+8441334D01*
X-2575500Y+8500500D01*
X-2563667Y+8512333D01*
X-2551833Y+8512333D01*
X-2540000Y+8500500D01*
X-2540000Y+8441334D01*
X-2540000Y+8500500D02*
X-2528167Y+8512333D01*
X-2504500Y+8512333D01*
X-2563667Y+8547833D02*
X-2575500Y+8559666D01*
X-2575500Y+8595166D01*
X-2563667Y+8606999D01*
X-2551833Y+8606999D01*
X-2540000Y+8595166D01*
X-2528167Y+8606999D01*
X-2516333Y+8606999D01*
X-2504500Y+8595166D01*
X-2504500Y+8559666D01*
X-2516333Y+8547833D01*
X-2540000Y+8571499D02*
X-2540000Y+8595166D01*
M02*
