G04 PROTEUS GERBER X2 FILE*
%TF.GenerationSoftware,Labcenter,Proteus,8.6-SP2-Build23525*%
%TF.CreationDate,2026-03-31T20:24:10+00:00*%
%TF.FileFunction,Copper,L2,Bot*%
%TF.FilePolarity,Positive*%
%TF.Part,Single*%
%FSLAX45Y45*%
%MOMM*%
G01*
%TA.AperFunction,Conductor*%
%ADD10C,0.254000*%
%TA.AperFunction,NonConductor*%
%ADD19C,0.254000*%
%TA.AperFunction,ViaPad*%
%ADD11C,0.762000*%
%TA.AperFunction,ComponentPad*%
%ADD12R,1.270000X1.270000*%
%ADD13C,1.270000*%
%TA.AperFunction,ComponentPad*%
%ADD15C,1.778000*%
%ADD17R,2.032000X2.032000*%
%TA.AperFunction,Profile*%
%ADD18C,0.203200*%
%TD.AperFunction*%
D10*
X-889000Y+9652000D02*
X-698500Y+9652000D01*
X-635000Y+9588500D01*
X-635000Y+7239000D01*
X-698500Y+7175500D01*
X-8953500Y+7175500D01*
X-9017000Y+7239000D01*
X-9017000Y+7874000D01*
X-1524000Y+9652000D02*
X-1778000Y+9906000D01*
X-8318500Y+9906000D01*
X-8382000Y+9842500D01*
X-8382000Y+8001000D01*
X-8509000Y+7874000D01*
X-7747000Y+7874000D02*
X-7747000Y+8318500D01*
X-7620000Y+8445500D01*
X-7620000Y+9080500D01*
X-7556500Y+9144000D01*
X-2667000Y+9144000D01*
X-2603500Y+9207500D01*
X-2603500Y+9588500D01*
X-2540000Y+9652000D01*
X-2159000Y+9652000D01*
X-2794000Y+9652000D02*
X-7683500Y+9652000D01*
X-7747000Y+9588500D01*
X-7747000Y+8636000D01*
X-2032000Y+8255000D02*
X-2032000Y+7366000D01*
X-2095500Y+7302500D01*
X-8826500Y+7302500D01*
X-8890000Y+7366000D01*
X-8890000Y+8001000D01*
X-8953500Y+8064500D01*
X-9080500Y+8064500D01*
X-9271000Y+7874000D01*
X-8001000Y+8636000D02*
X-7874000Y+8509000D01*
X-7874000Y+7810500D01*
X-7810500Y+7747000D01*
X-7683500Y+7747000D01*
X-7620000Y+7810500D01*
X-7620000Y+8001000D01*
X-7556500Y+8064500D01*
X-4953000Y+8064500D01*
X-4318000Y+7429500D01*
X-3302000Y+7429500D01*
X-3302000Y+7620000D01*
X-2159000Y+9398000D02*
X-2158999Y+9397999D01*
X-1968500Y+9397999D01*
X-1968499Y+9398000D01*
X-1524000Y+9398000D01*
X-2413000Y+7747000D02*
X-2603500Y+7937500D01*
X-3492500Y+7937500D01*
X-3556000Y+7874000D01*
X-3556000Y+7620000D01*
X-2286000Y+8255000D02*
X-2286000Y+8001000D01*
X-2273300Y+7988300D01*
X-2273300Y+7747000D01*
X-2413000Y+7747000D01*
X-2286000Y+8890000D02*
X-2286000Y+9080500D01*
X-2159000Y+9080500D01*
X-1651000Y+7620000D02*
X-1651000Y+8255000D01*
X-1524000Y+9398000D02*
X-889000Y+9398000D01*
X-2159000Y+9398000D02*
X-2159000Y+9080500D01*
X-9017000Y+8890000D02*
X-9017000Y+9398000D01*
X-8763000Y+9652000D01*
X-13970000Y+9398000D02*
X-13462000Y+9906000D01*
X-8572500Y+9906000D01*
X-8509000Y+9842500D01*
X-8509000Y+9652000D01*
X-9017000Y+8636000D02*
X-9207500Y+8445500D01*
X-13271500Y+8445500D01*
X-14224000Y+9398000D01*
X-7493000Y+7874000D02*
X-7493000Y+7683500D01*
X-7556500Y+7620000D01*
X-8572500Y+7620000D01*
X-8636000Y+7683500D01*
X-8636000Y+8509000D01*
X-8509000Y+8636000D01*
X-8636000Y+8763000D01*
X-8826500Y+8763000D01*
X-8890000Y+8699500D01*
X-8890000Y+8636000D01*
X-9017000Y+8636000D01*
X-9017000Y+8763000D01*
X-9144000Y+8763000D01*
X-9271000Y+8890000D01*
X-9271000Y+9652000D02*
X-9144000Y+9779000D01*
X-8699500Y+9779000D01*
X-8636000Y+9715500D01*
X-8636000Y+9017000D01*
X-8509000Y+8890000D01*
X-9271000Y+8636000D02*
X-9461500Y+8826500D01*
X-9461500Y+9461500D01*
X-9271000Y+9652000D01*
X-7493000Y+7874000D02*
X-7049317Y+7874000D01*
X-7000000Y+7750000D01*
X-7493000Y+8636000D02*
X-4000000Y+8636000D01*
X-3636000Y+9000000D01*
X-2750000Y+9000000D01*
X-2548043Y+8798043D01*
X-2500000Y+8650000D01*
X-1206500Y+8636000D01*
X-1143000Y+8572500D01*
X-1143000Y+7874000D01*
X-1397000Y+7620000D01*
D19*
X-3000000Y+8500000D02*
X-2708152Y+8500000D01*
X-2589567Y+8618585D01*
D11*
X-7000000Y+7750000D03*
X-3000000Y+8500000D03*
D12*
X-9271000Y+7874000D03*
D13*
X-9017000Y+7874000D03*
X-8763000Y+7874000D03*
X-8509000Y+7874000D03*
X-8255000Y+7874000D03*
X-8001000Y+7874000D03*
X-7747000Y+7874000D03*
X-7493000Y+7874000D03*
X-7493000Y+8636000D03*
X-7747000Y+8636000D03*
X-8001000Y+8636000D03*
X-8255000Y+8636000D03*
X-8509000Y+8636000D03*
X-8763000Y+8636000D03*
X-9017000Y+8636000D03*
X-9271000Y+8636000D03*
D12*
X-9271000Y+8890000D03*
D13*
X-9017000Y+8890000D03*
X-8763000Y+8890000D03*
X-8509000Y+8890000D03*
X-8509000Y+9652000D03*
X-8763000Y+9652000D03*
X-9017000Y+9652000D03*
X-9271000Y+9652000D03*
D15*
X-14224000Y+9398000D03*
X-13970000Y+9398000D03*
D17*
X-2794000Y+9652000D03*
X-2794000Y+9398000D03*
X-2159000Y+9652000D03*
X-2159000Y+9398000D03*
X-1524000Y+9652000D03*
X-1524000Y+9398000D03*
X-889000Y+9652000D03*
X-889000Y+9398000D03*
X-2032000Y+8890000D03*
X-2286000Y+8890000D03*
X-2032000Y+8255000D03*
X-2286000Y+8255000D03*
X-1397000Y+8255000D03*
X-1651000Y+8255000D03*
X-2413000Y+7493000D03*
X-2413000Y+7747000D03*
X-1397000Y+7620000D03*
X-1651000Y+7620000D03*
X-3302000Y+7620000D03*
X-3556000Y+7620000D03*
D18*
X-15000000Y+6850000D02*
X+0Y+6850000D01*
X+0Y+10300000D01*
X-15000000Y+10300000D01*
X-15000000Y+6850000D01*
M02*
